# Blender v3.0.0 OBJ File: 'City.blend'
# www.blender.org
mtllib Building4.mtl
o Building4_Cylinder
v -0.000000 -0.019506 -2.657962
v -0.000000 5.502323 -2.657962
v 1.328981 -0.019506 -2.301863
v 1.328981 5.502323 -2.301863
v 2.301863 -0.019506 -1.328981
v 2.301863 5.502323 -1.328981
v 2.657963 -0.019506 0.000000
v 2.657963 5.502323 0.000000
v 2.301863 -0.019506 1.328981
v 2.301863 5.502323 1.328981
v 1.053550 -0.032644 2.559695
v 1.328981 5.502323 2.301863
v -0.000000 5.502323 2.657963
v -1.053548 -0.032644 2.559695
v -1.328981 5.502323 2.301863
v -2.301863 -0.019506 1.328981
v -2.301863 5.502323 1.328981
v -2.657963 -0.019506 0.000000
v -2.657963 5.502323 0.000000
v -2.301863 -0.019506 -1.328981
v -2.301863 5.502323 -1.328981
v -1.328982 -0.019506 -2.301863
v -1.328982 5.502323 -2.301863
v 1.047819 5.689300 -1.814876
v -0.000000 5.689300 -2.095639
v 1.814876 5.689300 -1.047819
v 2.095639 5.689300 0.000000
v 1.814876 5.689300 1.047820
v 1.047819 5.689300 1.814876
v -0.000000 5.689300 2.095639
v -1.047819 5.689300 1.814876
v -1.814876 5.689300 1.047819
v -2.095639 5.689300 0.000000
v -1.814876 5.689300 -1.047819
v -1.047820 5.689300 -1.814876
v 1.047819 6.655349 -1.814876
v 0.000000 6.655349 -2.095639
v 1.814876 6.655349 -1.047819
v 2.095639 6.655349 0.000000
v 1.814876 6.655349 1.047820
v 1.047819 6.655349 1.814876
v -0.000000 6.655349 2.095639
v -1.047819 6.655349 1.814876
v -1.814876 6.655349 1.047819
v -2.095639 6.655349 0.000000
v -1.814876 6.655349 -1.047819
v -1.047820 6.655349 -1.814876
v 1.269344 7.174730 -2.198568
v 0.000000 7.174730 -2.538688
v 2.198568 7.174730 -1.269344
v 2.538688 7.174730 0.000000
v 2.198568 7.174730 1.269344
v 1.269344 7.174730 2.198568
v -0.000000 7.174730 2.538688
v -1.269344 7.174730 2.198568
v -2.198568 7.174730 1.269344
v -2.538688 7.174730 0.000000
v -2.198568 7.174730 -1.269344
v -1.269344 7.174730 -2.198568
v 2.284385 9.002952 -3.956671
v 0.000000 9.002952 -4.568769
v 3.956670 9.002952 -2.284384
v 4.568769 9.002952 0.000000
v 3.956670 9.002952 2.284385
v 2.284385 9.002952 3.956670
v -0.000000 9.002952 4.568769
v -2.284384 9.002952 3.956670
v -3.956670 9.002952 2.284384
v -4.568769 9.002952 -0.000000
v -3.956670 9.002952 -2.284384
v -2.284385 9.002952 -3.956671
v 2.284385 9.511945 -3.956671
v 0.000000 9.511945 -4.568769
v 3.956670 9.511945 -2.284384
v 4.568769 9.511945 0.000000
v 3.956670 9.511945 2.284385
v 2.284385 9.511945 3.956670
v -0.000000 9.511945 4.568769
v -2.284384 9.511945 3.956670
v -3.956670 9.511945 2.284384
v -4.568769 9.511945 -0.000000
v -3.956670 9.511945 -2.284384
v -2.284385 9.511945 -3.956671
v 1.537743 9.709311 -2.663449
v 0.000000 9.709311 -3.075485
v 2.663448 9.709311 -1.537742
v 3.075485 9.709311 0.000000
v 2.663448 9.709311 1.537743
v 1.537743 9.709311 2.663448
v -0.000000 9.709311 3.075485
v -1.537742 9.709311 2.663448
v -2.663448 9.709311 1.537742
v -3.075485 9.709311 0.000000
v -2.663448 9.709311 -1.537742
v -1.537743 9.709311 -2.663449
v 1.537743 10.519547 -2.663449
v 0.000000 10.519547 -3.075485
v 2.663448 10.519547 -1.537742
v 3.075485 10.519547 0.000000
v 2.663448 10.519547 1.537743
v 1.537743 10.519547 2.663448
v -0.000000 10.519547 3.075485
v -1.537742 10.519547 2.663448
v -2.663448 10.519547 1.537742
v -3.075485 10.519547 0.000000
v -2.663448 10.519547 -1.537742
v -1.537743 10.519547 -2.663449
v 2.450221 10.966213 -4.243907
v 0.000000 10.966213 -4.900442
v 4.243907 10.966213 -2.450220
v 4.900442 10.966213 0.000000
v 4.243907 10.966213 2.450222
v 2.450221 10.966213 4.243906
v -0.000000 10.966213 4.900442
v -2.450221 10.966213 4.243906
v -4.243906 10.966213 2.450220
v -4.900442 10.966213 0.000000
v -4.243906 10.966213 -2.450220
v -2.450222 10.966213 -4.243907
v 2.450221 12.804823 -4.243907
v 0.000000 12.804823 -4.900442
v 4.243907 12.804823 -2.450220
v 4.900442 12.804823 0.000000
v 4.243907 12.804823 2.450222
v 2.450221 12.804823 4.243906
v -0.000000 12.804823 4.900442
v -2.450221 12.804823 4.243906
v -4.243906 12.804823 2.450220
v -4.900442 12.804823 0.000000
v -4.243906 12.804823 -2.450220
v -2.450222 12.804823 -4.243907
v 2.250849 13.791647 -3.898585
v 0.000000 13.791647 -4.501698
v 3.898585 13.791647 -2.250849
v 4.501698 13.791647 0.000000
v 3.898585 13.791647 2.250850
v 2.250849 13.791647 3.898584
v -0.000000 13.791647 4.501698
v -2.250849 13.791647 3.898584
v -3.898584 13.791647 2.250849
v -4.501698 13.791647 -0.000000
v -3.898584 13.791647 -2.250849
v -2.250850 13.791647 -3.898585
v 1.654301 14.643433 -2.865333
v 0.000000 14.643433 -3.308602
v 2.865332 14.643433 -1.654300
v 3.308601 14.643433 0.000000
v 2.865332 14.643433 1.654301
v 1.654301 14.643433 2.865332
v 0.000000 14.643433 3.308601
v -1.654300 14.643433 2.865332
v -2.865332 14.643433 1.654300
v -3.308601 14.643433 -0.000000
v -2.865332 14.643433 -1.654300
v -1.654301 14.643433 -2.865333
v 0.783834 15.349792 -1.357641
v 0.000000 15.349792 -1.567669
v 1.357641 15.349792 -0.783834
v 1.567668 15.349792 -0.000000
v 1.357641 15.349792 0.783834
v 0.783834 15.349792 1.357640
v 0.000000 15.349792 1.567668
v -0.783834 15.349792 1.357640
v -1.357640 15.349792 0.783834
v -1.567668 15.349792 -0.000000
v -1.357640 15.349792 -0.783834
v -0.783834 15.349792 -1.357641
v -0.000000 3.177869 -2.657962
v 1.328981 3.177869 -2.301863
v 2.301863 3.177869 -1.328981
v 2.657963 3.177869 0.000000
v 2.301863 3.177869 1.328981
v 1.053550 3.177869 2.559695
v 0.000001 3.209488 2.841993
v -1.053548 3.177869 2.559695
v -2.301863 3.177869 1.328981
v -2.657963 3.177869 0.000000
v -2.301863 3.177869 -1.328981
v -1.328982 3.177869 -2.301863
v 0.889775 2.908105 3.858181
v 0.889775 -0.021242 3.858181
v 0.000000 3.209488 4.096595
v -0.889774 -0.021242 3.858181
v -0.889774 2.908105 3.858181
v 1.053550 3.209488 3.814298
v 1.053550 -0.032644 3.814298
v -1.053548 -0.032644 3.814298
v -1.053548 3.209488 3.814298
v 0.000000 2.908105 4.096595
v 0.000001 2.908105 3.754224
v 0.000001 -0.021242 3.754224
v 0.889775 2.908105 3.515810
v 0.889775 -0.021242 3.515810
v -0.889774 -0.021242 3.515810
v -0.889774 2.908105 3.515810
v -0.000000 4.345841 -2.657962
v 1.328981 4.345841 -2.301863
v 2.301863 4.345841 -1.328981
v 2.657963 4.345841 0.000000
v 2.301863 4.345841 1.328981
v 1.053202 4.345841 2.554225
v 0.000000 4.360157 2.836429
v -1.053201 4.345841 2.554225
v -2.301863 4.345841 1.328981
v -2.657963 4.345841 0.000000
v -2.301863 4.345841 -1.328981
v -1.328982 4.345841 -2.301863
vt 0.821258 0.309899
vt 0.821258 0.409886
vt 0.754601 0.409886
vt 0.754601 0.309899
vt 0.687943 0.409886
vt 0.687943 0.309899
vt 0.621285 0.409886
vt 0.621285 0.309899
vt 0.554627 0.409886
vt 0.554627 0.309899
vt 0.487970 0.409886
vt 0.487970 0.309899
vt 0.421312 0.409886
vt 0.421312 0.309899
vt 0.354654 0.409886
vt 0.354654 0.309899
vt 0.287996 0.409886
vt 0.287996 0.309899
vt 0.221339 0.409886
vt 0.221339 0.309899
vt 0.154681 0.409886
vt 0.154681 0.309899
vt 0.836859 0.977708
vt 0.746746 0.977775
vt 0.756630 0.940391
vt 0.826671 0.940401
vt 0.088023 0.409886
vt 0.088023 0.309899
vt 0.021366 0.409886
vt 0.021366 0.309899
vt 0.477997 0.831384
vt 0.479037 0.802259
vt 0.513261 0.791350
vt 0.513261 0.839982
vt 0.668730 0.932651
vt 0.696031 0.905240
vt 0.623737 0.854508
vt 0.661106 0.844403
vt 0.746589 0.640941
vt 0.836709 0.640882
vt 0.826818 0.678272
vt 0.756776 0.678241
vt 0.668647 0.686159
vt 0.696153 0.713358
vt 0.623738 0.764319
vt 0.661173 0.774182
vt 0.914757 0.686001
vt 0.887457 0.713432
vt 0.959815 0.764134
vt 0.922444 0.774260
vt 0.959815 0.854348
vt 0.922377 0.844470
vt 0.914829 0.932504
vt 0.887330 0.905278
vt 0.119250 0.893769
vt 0.138459 0.894574
vt 0.141731 0.907181
vt 0.115668 0.906349
vt 0.438038 0.762933
vt 0.407085 0.762549
vt 0.397014 0.727370
vt 0.445516 0.727375
vt 0.363646 0.800337
vt 0.362983 0.829390
vt 0.328667 0.840289
vt 0.328714 0.791784
vt 0.461883 0.856572
vt 0.488174 0.882007
vt 0.464377 0.777132
vt 0.488009 0.750116
vt 0.379830 0.775983
vt 0.354120 0.750381
vt 0.434817 0.870609
vt 0.445249 0.905886
vt 0.377895 0.854919
vt 0.404114 0.870171
vt 0.396196 0.905893
vt 0.353601 0.881938
vt 0.164620 0.894689
vt 0.178168 0.872270
vt 0.233779 0.885791
vt 0.205932 0.934006
vt 0.157030 0.831872
vt 0.140766 0.821404
vt 0.144339 0.808850
vt 0.166499 0.822747
vt 0.104657 0.829819
vt 0.094515 0.846432
vt 0.081790 0.842963
vt 0.095403 0.820546
vt 0.102905 0.883337
vt 0.093457 0.892480
vt 0.166063 0.849215
vt 0.178868 0.845951
vt 0.121578 0.820639
vt 0.118292 0.808037
vt 0.093876 0.866015
vt 0.081076 0.869278
vt 0.165434 0.868821
vt 0.155377 0.885442
vt 0.026175 0.829407
vt 0.026037 0.885200
vt 0.013012 0.888947
vt 0.013029 0.826162
vt 0.157712 0.961839
vt 0.101982 0.961730
vt 0.158028 0.753513
vt 0.206206 0.781603
vt 0.054078 0.781176
vt 0.053765 0.933657
vt 0.233901 0.830036
vt 0.102317 0.753376
vt 0.264750 0.712466
vt 0.232806 0.730906
vt 0.226720 0.708254
vt 0.248154 0.695891
vt 0.246916 0.889026
vt 0.215698 0.943365
vt 0.161482 0.974841
vt 0.098719 0.974882
vt 0.161296 0.740368
vt 0.215620 0.771857
vt 0.044314 0.771807
vt 0.044349 0.943412
vt 0.246916 0.826293
vt 0.098556 0.740374
vt 0.385320 0.937245
vt 0.447744 0.935917
vt 0.460156 0.973541
vt 0.376844 0.975563
vt 0.145545 0.643646
vt 0.163993 0.611713
vt 0.180581 0.628289
vt 0.168200 0.649703
vt 0.163981 0.712466
vt 0.145541 0.680526
vt 0.168189 0.674440
vt 0.180552 0.695869
vt 0.232808 0.593277
vt 0.264749 0.611706
vt 0.248183 0.628303
vt 0.226762 0.615933
vt 0.283193 0.680524
vt 0.260534 0.674469
vt 0.195922 0.730906
vt 0.201976 0.708246
vt 0.195937 0.593286
vt 0.202020 0.615938
vt 0.283193 0.643643
vt 0.260545 0.649729
vt 0.578670 0.665917
vt 0.602246 0.665953
vt 0.609578 0.692988
vt 0.571484 0.693000
vt 0.535576 0.847068
vt 0.536276 0.782191
vt 0.574862 0.770624
vt 0.574862 0.856079
vt 0.334467 0.726761
vt 0.306452 0.784153
vt 0.267594 0.775689
vt 0.304372 0.701616
vt 0.450264 0.693497
vt 0.387461 0.693837
vt 0.374791 0.656437
vt 0.458928 0.654676
vt 0.332252 0.905252
vt 0.304785 0.933437
vt 0.503137 0.903222
vt 0.532754 0.930219
vt 0.504981 0.725914
vt 0.532442 0.696733
vt 0.303441 0.849376
vt 0.265191 0.859613
vt 0.686818 0.840844
vt 0.686808 0.783233
vt 0.722039 0.792327
vt 0.721874 0.831105
vt 0.622736 0.589687
vt 0.602343 0.577850
vt 0.609530 0.550774
vt 0.642514 0.569831
vt 0.558354 0.589590
vt 0.546550 0.610020
vt 0.519454 0.602838
vt 0.538478 0.569845
vt 0.622669 0.654182
vt 0.642545 0.673917
vt 0.558267 0.654084
vt 0.538491 0.673944
vt 0.634493 0.610146
vt 0.661552 0.602832
vt 0.578775 0.577814
vt 0.571443 0.550783
vt 0.546511 0.633625
vt 0.519449 0.640939
vt 0.634457 0.633752
vt 0.661552 0.640927
vt 0.866576 0.831735
vt 0.847045 0.865229
vt 0.835684 0.854268
vt 0.851260 0.827923
vt 0.765516 0.919519
vt 0.715629 0.890726
vt 0.741117 0.864766
vt 0.774610 0.884295
vt 0.765505 0.704531
vt 0.823115 0.704537
vt 0.814013 0.739765
vt 0.775238 0.739591
vt 0.901801 0.783231
vt 0.901801 0.840834
vt 0.866747 0.792965
vt 0.823112 0.919517
vt 0.813378 0.884464
vt 0.715608 0.733334
vt 0.741568 0.758828
vt 0.873001 0.733344
vt 0.847507 0.759302
vt 0.872999 0.890721
vt 0.822344 0.841154
vt 0.833155 0.823236
vt 0.737357 0.796137
vt 0.737044 0.826745
vt 0.752074 0.853406
vt 0.778419 0.868980
vt 0.810202 0.755081
vt 0.779596 0.754762
vt 0.851578 0.797322
vt 0.809019 0.869295
vt 0.752930 0.769789
vt 0.836549 0.770661
vt 0.805516 0.773188
vt 0.823437 0.784000
vt 0.807552 0.799503
vt 0.799531 0.794548
vt 0.755466 0.800820
vt 0.755066 0.821749
vt 0.765183 0.840068
vt 0.783101 0.850876
vt 0.784593 0.772786
vt 0.833559 0.802320
vt 0.804019 0.851272
vt 0.766270 0.782901
vt 0.789090 0.829513
vt 0.781044 0.824559
vt 0.776553 0.816250
vt 0.776838 0.806809
vt 0.781781 0.798756
vt 0.790093 0.794277
vt 0.812052 0.807817
vt 0.811796 0.817286
vt 0.806836 0.825321
vt 0.798531 0.829766
vt 0.088023 0.009939
vt 0.088023 0.209913
vt 0.021366 0.209913
vt 0.021366 0.009939
vt 0.154681 0.009939
vt 0.154681 0.209913
vt 0.221339 0.009939
vt 0.221339 0.209913
vt 0.287996 0.009939
vt 0.287996 0.209913
vt 0.354654 0.009939
vt 0.354654 0.209913
vt 0.089619 0.573557
vt 0.102272 0.620703
vt 0.046132 0.620678
vt 0.033506 0.573557
vt 0.554627 0.009939
vt 0.554627 0.209913
vt 0.487970 0.209913
vt 0.487970 0.009939
vt 0.621285 0.009939
vt 0.621285 0.209913
vt 0.687943 0.009939
vt 0.687943 0.209913
vt 0.754601 0.009939
vt 0.754601 0.209913
vt 0.821258 0.009939
vt 0.821258 0.209913
vt 0.855975 0.394005
vt 0.855975 0.214824
vt 0.866900 0.231221
vt 0.866900 0.377607
vt 0.975355 0.394005
vt 0.915665 0.394005
vt 0.915665 0.377607
vt 0.964430 0.377607
vt 0.102272 0.526412
vt 0.046132 0.526437
vt 0.105202 0.716815
vt 0.049115 0.718524
vt 0.105202 0.430300
vt 0.049115 0.428590
vt 0.975355 0.214824
vt 0.986342 0.198399
vt 0.986342 0.410430
vt 0.964430 0.231221
vt 0.915665 0.231221
vt 0.844988 0.410430
vt 0.844988 0.198399
vt 0.915665 0.410430
vt 0.421312 0.209913
vn 0.2588 0.0000 -0.9659
vn 0.7071 0.0000 -0.7071
vn 0.9659 0.0000 -0.2588
vn 0.9659 -0.0000 0.2588
vn 0.7033 -0.0063 0.7108
vn 0.2568 0.1482 0.9550
vn -0.2568 0.1482 0.9550
vn -0.7033 -0.0063 0.7108
vn -0.9659 -0.0000 0.2588
vn -0.9659 0.0000 -0.2588
vn 0.0842 0.9455 0.3144
vn -0.7071 0.0000 -0.7071
vn -0.2588 0.0000 -0.9659
vn 0.2302 0.9455 0.2302
vn 0.3144 0.9455 0.0842
vn -0.0842 0.9455 -0.3144
vn 0.0842 0.9455 -0.3144
vn 0.3144 0.9455 -0.0842
vn -0.2302 0.9455 -0.2302
vn 0.2302 0.9455 -0.2302
vn -0.3144 0.9455 -0.0842
vn -0.3144 0.9455 0.0842
vn -0.2302 0.9455 0.2302
vn -0.0842 0.9455 0.3144
vn 0.5457 -0.6359 -0.5457
vn 0.2588 -0.0000 0.9659
vn -0.2588 0.0000 0.9659
vn -0.7071 0.0000 0.7071
vn 0.7071 0.0000 0.7071
vn -0.1765 -0.7314 -0.6587
vn -0.7455 -0.6359 0.1997
vn 0.1997 -0.6359 0.7455
vn 0.7455 -0.6359 -0.1997
vn -0.7455 -0.6359 -0.1997
vn -0.1997 -0.6359 0.7455
vn 0.7455 -0.6359 0.1997
vn -0.5457 -0.6359 -0.5457
vn 0.1997 -0.6359 -0.7455
vn -0.5457 -0.6359 0.5457
vn 0.5457 -0.6359 0.5457
vn -0.1997 -0.6359 -0.7455
vn 0.4822 -0.7314 -0.4822
vn -0.6587 -0.7314 0.1765
vn 0.1765 -0.7314 0.6587
vn 0.6587 -0.7314 -0.1765
vn -0.6587 -0.7314 -0.1765
vn -0.1765 -0.7314 0.6587
vn 0.6587 -0.7314 0.1765
vn -0.4822 -0.7314 -0.4822
vn 0.1765 -0.7314 -0.6587
vn -0.4822 -0.7314 0.4822
vn 0.4822 -0.7314 0.4822
vn 0.0959 0.9908 0.0959
vn -0.0351 0.9908 -0.1309
vn 0.0959 0.9908 -0.0959
vn -0.1309 0.9908 0.0351
vn 0.0351 0.9908 0.1309
vn 0.1309 0.9908 -0.0351
vn -0.1309 0.9908 -0.0351
vn -0.0351 0.9908 0.1309
vn 0.1309 0.9908 0.0351
vn -0.0959 0.9908 -0.0959
vn 0.0351 0.9908 -0.1309
vn -0.0959 0.9908 0.0959
vn 0.0636 -0.9694 -0.2373
vn -0.1737 -0.9694 0.1737
vn 0.1737 -0.9694 0.1737
vn -0.0636 -0.9694 -0.2373
vn 0.1737 -0.9694 -0.1737
vn -0.2373 -0.9694 0.0636
vn 0.0636 -0.9694 0.2373
vn 0.2373 -0.9694 -0.0636
vn -0.2373 -0.9694 -0.0636
vn -0.0636 -0.9694 0.2373
vn 0.2373 -0.9694 0.0636
vn -0.1737 -0.9694 -0.1737
vn 0.8998 0.3636 0.2411
vn 0.5741 0.8042 0.1538
vn -0.6587 0.3636 -0.6587
vn 0.2411 0.3636 -0.8998
vn -0.6587 0.3636 0.6587
vn 0.6587 0.3636 0.6587
vn -0.2411 0.3636 -0.8998
vn 0.6587 0.3636 -0.6587
vn -0.8998 0.3636 0.2411
vn 0.2411 0.3636 0.8998
vn 0.8998 0.3636 -0.2411
vn -0.8998 0.3636 -0.2411
vn -0.2411 0.3636 0.8998
vn -0.1002 0.9220 0.3741
vn -0.4203 0.8042 -0.4203
vn 0.1538 0.8042 -0.5741
vn -0.4203 0.8042 0.4203
vn 0.4203 0.8042 0.4203
vn -0.1538 0.8042 -0.5741
vn 0.4203 0.8042 -0.4203
vn -0.5741 0.8042 0.1538
vn 0.1538 0.8042 0.5741
vn 0.5741 0.8042 -0.1538
vn -0.5741 0.8042 -0.1538
vn -0.1538 0.8042 0.5741
vn 0.0000 1.0000 -0.0000
vn 0.3741 0.9220 0.1002
vn -0.2738 0.9220 -0.2738
vn 0.1002 0.9220 -0.3741
vn -0.2738 0.9220 0.2738
vn 0.2738 0.9220 0.2738
vn -0.1002 0.9220 -0.3741
vn 0.2738 0.9220 -0.2738
vn -0.3741 0.9220 0.1002
vn 0.1002 0.9220 0.3741
vn 0.3741 0.9220 -0.1002
vn -0.3741 0.9220 -0.1002
vn -0.7021 0.0000 0.7121
vn -0.0116 0.9999 -0.0126
vn 0.7021 0.0000 0.7121
vn 1.0000 0.0000 0.0000
vn 0.0000 -1.0000 0.0000
vn 0.0116 0.9999 -0.0126
vn -1.0000 0.0000 0.0000
vn -0.7012 0.0018 0.7129
vn -0.2589 0.0046 0.9659
vn 0.2589 0.0046 0.9659
vn 0.7012 0.0018 0.7129
usemtl Building4
s off
f 196/1/1 2/2/1 4/3/1 197/4/1
f 197/4/2 4/3/2 6/5/2 198/6/2
f 198/6/3 6/5/3 8/7/3 199/8/3
f 199/8/4 8/7/4 10/9/4 200/10/4
f 200/10/5 10/9/5 12/11/5 201/12/5
f 201/12/6 12/11/6 13/13/6 202/14/6
f 202/14/7 13/13/7 15/15/7 203/16/7
f 203/16/8 15/15/8 17/17/8 204/18/8
f 204/18/9 17/17/9 19/19/9 205/20/9
f 205/20/10 19/19/10 21/21/10 206/22/10
f 13/23/11 12/24/11 29/25/11 30/26/11
f 206/22/12 21/21/12 23/27/12 207/28/12
f 207/28/13 23/27/13 2/29/13 196/30/13
f 33/31/9 32/32/9 44/33/9 45/34/9
f 12/24/14 10/35/14 28/36/14 29/25/14
f 10/35/15 8/37/15 27/38/15 28/36/15
f 2/39/16 23/40/16 35/41/16 25/42/16
f 4/43/17 2/39/17 25/42/17 24/44/17
f 8/37/18 6/45/18 26/46/18 27/38/18
f 23/40/19 21/47/19 34/48/19 35/41/19
f 6/45/20 4/43/20 24/44/20 26/46/20
f 21/47/21 19/49/21 33/50/21 34/48/21
f 19/49/22 17/51/22 32/52/22 33/50/22
f 17/51/23 15/53/23 31/54/23 32/52/23
f 15/53/24 13/23/24 30/26/24 31/54/24
f 38/55/25 36/56/25 48/57/25 50/58/25
f 30/59/26 29/60/26 41/61/26 42/62/26
f 27/63/3 26/64/3 38/65/3 39/66/3
f 34/67/10 33/31/10 45/34/10 46/68/10
f 31/69/27 30/59/27 42/62/27 43/70/27
f 28/71/4 27/63/4 39/66/4 40/72/4
f 35/73/12 34/67/12 46/68/12 47/74/12
f 24/75/1 25/76/1 37/77/1 36/78/1
f 32/32/28 31/69/28 43/70/28 44/33/28
f 29/60/29 28/71/29 40/72/29 41/61/29
f 25/76/13 35/73/13 47/74/13 37/77/13
f 26/64/2 24/75/2 36/78/2 38/65/2
f 49/79/30 59/80/30 71/81/30 61/82/30
f 45/83/31 44/84/31 56/85/31 57/86/31
f 42/87/32 41/88/32 53/89/32 54/90/32
f 39/91/33 38/55/33 50/58/33 51/92/33
f 46/93/34 45/83/34 57/86/34 58/94/34
f 43/95/35 42/87/35 54/90/35 55/96/35
f 40/97/36 39/91/36 51/92/36 52/98/36
f 47/99/37 46/93/37 58/94/37 59/80/37
f 36/56/38 37/100/38 49/79/38 48/57/38
f 44/84/39 43/95/39 55/96/39 56/85/39
f 41/88/40 40/97/40 52/98/40 53/89/40
f 37/100/41 47/99/41 59/80/41 49/79/41
f 65/101/29 64/102/29 76/103/29 77/104/29
f 50/58/42 48/57/42 60/105/42 62/106/42
f 57/86/43 56/85/43 68/107/43 69/108/43
f 54/90/44 53/89/44 65/101/44 66/109/44
f 51/92/45 50/58/45 62/106/45 63/110/45
f 58/94/46 57/86/46 69/108/46 70/111/46
f 55/96/47 54/90/47 66/109/47 67/112/47
f 52/98/48 51/92/48 63/110/48 64/102/48
f 59/80/49 58/94/49 70/111/49 71/81/49
f 48/57/50 49/79/50 61/82/50 60/105/50
f 56/85/51 55/96/51 67/112/51 68/107/51
f 53/89/52 52/98/52 64/102/52 65/101/52
f 77/113/53 76/114/53 88/115/53 89/116/53
f 61/82/13 71/81/13 83/117/13 73/118/13
f 62/106/2 60/105/2 72/119/2 74/120/2
f 69/108/9 68/107/9 80/121/9 81/122/9
f 66/109/26 65/101/26 77/104/26 78/123/26
f 63/110/3 62/106/3 74/120/3 75/124/3
f 70/111/10 69/108/10 81/122/10 82/125/10
f 67/112/27 66/109/27 78/123/27 79/126/27
f 64/102/4 63/110/4 75/124/4 76/103/4
f 71/81/12 70/111/12 82/125/12 83/117/12
f 60/105/1 61/82/1 73/118/1 72/119/1
f 68/107/28 67/112/28 79/126/28 80/121/28
f 92/127/28 91/128/28 103/129/28 104/130/28
f 73/131/54 83/132/54 95/133/54 85/134/54
f 74/135/55 72/136/55 84/137/55 86/138/55
f 81/139/56 80/140/56 92/141/56 93/142/56
f 78/143/57 77/113/57 89/116/57 90/144/57
f 75/145/58 74/135/58 86/138/58 87/146/58
f 82/147/59 81/139/59 93/142/59 94/148/59
f 79/149/60 78/143/60 90/144/60 91/150/60
f 76/114/61 75/145/61 87/146/61 88/115/61
f 83/132/62 82/147/62 94/148/62 95/133/62
f 72/136/63 73/131/63 85/134/63 84/137/63
f 80/140/64 79/149/64 91/150/64 92/141/64
f 96/151/65 97/152/65 109/153/65 108/154/65
f 89/155/29 88/156/29 100/157/29 101/158/29
f 85/159/13 95/160/13 107/161/13 97/162/13
f 86/163/2 84/164/2 96/165/2 98/166/2
f 93/167/9 92/127/9 104/130/9 105/168/9
f 90/169/26 89/155/26 101/158/26 102/170/26
f 87/171/3 86/163/3 98/166/3 99/172/3
f 94/173/10 93/167/10 105/168/10 106/174/10
f 91/128/27 90/169/27 102/170/27 103/129/27
f 88/156/4 87/171/4 99/172/4 100/157/4
f 95/160/12 94/173/12 106/174/12 107/161/12
f 84/164/1 85/159/1 97/162/1 96/165/1
f 119/175/12 118/176/12 130/177/12 131/178/12
f 104/179/66 103/180/66 115/181/66 116/182/66
f 101/183/67 100/184/67 112/185/67 113/186/67
f 97/152/68 107/187/68 119/188/68 109/153/68
f 98/189/69 96/151/69 108/154/69 110/190/69
f 105/191/70 104/179/70 116/182/70 117/192/70
f 102/193/71 101/183/71 113/186/71 114/194/71
f 99/195/72 98/189/72 110/190/72 111/196/72
f 106/197/73 105/191/73 117/192/73 118/198/73
f 103/180/74 102/193/74 114/194/74 115/181/74
f 100/184/75 99/195/75 111/196/75 112/185/75
f 107/187/76 106/197/76 118/198/76 119/188/76
f 124/199/77 123/200/77 135/201/77 136/202/77
f 108/203/1 109/204/1 121/205/1 120/206/1
f 116/207/28 115/208/28 127/209/28 128/210/28
f 113/211/29 112/212/29 124/199/29 125/213/29
f 109/204/13 119/175/13 131/178/13 121/205/13
f 110/214/2 108/203/2 120/206/2 122/215/2
f 117/216/9 116/207/9 128/210/9 129/217/9
f 114/218/26 113/211/26 125/213/26 126/219/26
f 111/220/3 110/214/3 122/215/3 123/200/3
f 118/176/10 117/216/10 129/217/10 130/177/10
f 115/208/27 114/218/27 126/219/27 127/209/27
f 112/212/4 111/220/4 123/200/4 124/199/4
f 136/202/78 135/201/78 147/221/78 148/222/78
f 131/178/79 130/177/79 142/223/79 143/224/79
f 120/206/80 121/205/80 133/225/80 132/226/80
f 128/210/81 127/209/81 139/227/81 140/228/81
f 125/213/82 124/199/82 136/202/82 137/229/82
f 121/205/83 131/178/83 143/224/83 133/225/83
f 122/215/84 120/206/84 132/226/84 134/230/84
f 129/217/85 128/210/85 140/228/85 141/231/85
f 126/219/86 125/213/86 137/229/86 138/232/86
f 123/200/87 122/215/87 134/230/87 135/201/87
f 130/177/88 129/217/88 141/231/88 142/223/88
f 127/209/89 126/219/89 138/232/89 139/227/89
f 151/233/90 150/234/90 162/235/90 163/236/90
f 143/224/91 142/223/91 154/237/91 155/238/91
f 132/226/92 133/225/92 145/239/92 144/240/92
f 140/228/93 139/227/93 151/233/93 152/241/93
f 137/229/94 136/202/94 148/222/94 149/242/94
f 133/225/95 143/224/95 155/238/95 145/239/95
f 134/230/96 132/226/96 144/240/96 146/243/96
f 141/231/97 140/228/97 152/241/97 153/244/97
f 138/232/98 137/229/98 149/242/98 150/234/98
f 135/201/99 134/230/99 146/243/99 147/221/99
f 142/223/100 141/231/100 153/244/100 154/237/100
f 139/227/101 138/232/101 150/234/101 151/233/101
f 156/245/102 157/246/102 167/247/102 166/248/102 165/249/102 164/250/102 163/236/102 162/235/102 161/251/102 160/252/102 159/253/102 158/254/102
f 148/222/103 147/221/103 159/253/103 160/252/103
f 155/238/104 154/237/104 166/248/104 167/247/104
f 144/240/105 145/239/105 157/246/105 156/245/105
f 152/241/106 151/233/106 163/236/106 164/250/106
f 149/242/107 148/222/107 160/252/107 161/251/107
f 145/239/108 155/238/108 167/247/108 157/246/108
f 146/243/109 144/240/109 156/245/109 158/254/109
f 153/244/110 152/241/110 164/250/110 165/249/110
f 150/234/111 149/242/111 161/251/111 162/235/111
f 147/221/112 146/243/112 158/254/112 159/253/112
f 154/237/113 153/244/113 165/249/113 166/248/113
f 22/255/13 179/256/13 168/257/13 1/258/13
f 20/259/12 178/260/12 179/256/12 22/255/12
f 18/261/10 177/262/10 178/260/10 20/259/10
f 16/263/9 176/264/9 177/262/9 18/261/9
f 14/265/114 175/266/114 176/264/114 16/263/114
f 174/267/115 175/268/115 188/269/115 182/270/115
f 9/271/116 172/272/116 173/273/116 11/274/116
f 7/275/4 171/276/4 172/272/4 9/271/4
f 5/277/3 170/278/3 171/276/3 7/275/3
f 3/279/2 169/280/2 170/278/2 5/277/2
f 1/281/1 168/282/1 169/280/1 3/279/1
f 184/283/117 183/284/117 194/285/117 195/286/117
f 180/287/118 189/288/118 190/289/118 192/290/118
f 173/291/119 174/267/119 182/270/119 185/292/119
f 175/268/120 14/293/120 187/294/120 188/269/120
f 11/295/117 173/291/117 185/292/117 186/296/117
f 180/287/26 181/297/26 186/298/26 185/299/26
f 193/300/26 192/290/26 190/289/26 191/301/26
f 191/301/27 190/289/27 195/286/27 194/285/27
f 183/284/27 184/283/27 188/302/27 187/303/27
f 184/283/27 189/288/27 182/304/27 188/302/27
f 189/288/26 180/287/26 185/299/26 182/304/26
f 189/288/118 184/283/118 195/286/118 190/289/118
f 181/297/120 180/287/120 192/290/120 193/300/120
f 179/256/13 207/28/13 196/30/13 168/257/13
f 178/260/12 206/22/12 207/28/12 179/256/12
f 177/262/10 205/20/10 206/22/10 178/260/10
f 176/264/9 204/18/9 205/20/9 177/262/9
f 175/266/121 203/16/121 204/18/121 176/264/121
f 174/305/122 202/14/122 203/16/122 175/266/122
f 173/273/123 201/12/123 202/14/123 174/305/123
f 172/272/124 200/10/124 201/12/124 173/273/124
f 171/276/4 199/8/4 200/10/4 172/272/4
f 170/278/3 198/6/3 199/8/3 171/276/3
f 169/280/2 197/4/2 198/6/2 170/278/2
f 168/282/1 196/1/1 197/4/1 169/280/1
