# Blender v3.0.0 OBJ File: 'Bush.blend'
# www.blender.org
mtllib Bush.mtl
o Bush_Cylinder
v 1.758884 -0.400188 1.415175
v 0.928576 -0.118886 -0.543816
v 2.347538 1.156902 1.234866
v 2.294268 1.279820 3.192699
v 0.842360 0.079977 2.623970
v -0.001667 -0.784456 0.314690
v 0.950802 1.670894 0.022977
v 1.794830 2.415861 2.332257
v 0.864587 1.750290 3.190763
v -0.554374 0.474503 1.412081
v -0.501105 0.351585 -0.545752
v 0.034279 1.918148 1.231772
v 0.860423 1.489802 0.510627
v -1.345368 0.543684 -0.257181
v -0.215819 2.961653 1.245741
v 1.473479 3.246566 2.786595
v 1.387934 1.004637 2.235931
v -0.354203 -0.665809 0.354786
v -2.051539 1.678656 1.495780
v -0.227314 3.280021 3.286566
v 0.763852 2.070529 3.898531
v -0.365697 -0.347440 2.395611
v -2.054997 -0.632350 0.854755
v -1.363990 1.058811 3.044919
v -1.159078 0.222182 -0.719386
v -0.967962 -0.856990 0.216428
v -2.256392 0.062653 -0.533517
v -2.414751 1.332876 -0.846342
v -1.224168 1.198242 -0.289717
v -0.330018 -0.155164 0.367103
v -2.067452 -0.416205 0.647987
v -2.890637 0.931723 -0.045834
v -2.252694 1.633549 0.104841
v -0.964263 0.713906 0.854786
v -0.805905 -0.556318 1.167610
v -1.994189 0.549174 1.005517
v -1.586137 0.460562 -1.364462
v 0.924074 0.437538 -1.663090
v -1.207576 -0.180781 0.461782
v -2.803091 1.089023 1.077574
v -2.302174 2.045867 -0.666760
v 0.247581 1.813670 -2.360560
v 0.841383 0.772749 0.521320
v -1.743206 0.998955 2.078913
v -2.419699 2.375087 1.381441
v -0.288049 2.993407 -0.743429
v 1.705920 1.999402 -0.668418
v 0.057434 2.346374 0.953473
v -1.186560 1.457235 2.016270
v 0.124331 1.223332 1.582664
v -0.937599 2.514824 1.901426
v -2.187790 2.710115 1.705117
v -1.898485 1.539297 1.265026
v -0.469523 0.620429 1.189351
v -0.072773 2.294988 1.022702
v -1.513023 3.145507 1.134119
v -2.106878 2.542606 0.740806
v -1.044946 1.251113 0.422042
v 0.205245 1.055820 0.618352
v -0.806706 2.243797 0.341140
v -0.553778 -0.261881 -0.619849
v 1.504942 -0.280764 -0.864764
v -0.243305 -0.787871 0.877923
v -1.878635 0.027349 1.382958
v -1.141027 1.038288 -0.047636
v 0.950125 0.847855 -1.436787
v 1.437124 -0.005845 0.926752
v -0.682596 0.179676 2.204195
v -1.237413 1.308294 1.632171
v 0.510834 1.815401 -0.110516
v 2.146163 1.000180 -0.615550
v 0.794177 1.284745 1.281178
vt 0.328849 -0.708100
vt 0.474829 -0.955556
vt 0.447780 -0.592518
vt -0.059059 -0.215016
vt -0.058672 -0.442588
vt 0.119448 -0.311900
vt 0.424878 -0.365887
vt -0.059059 -0.646139
vt -0.051178 -1.001539
vt 0.021362 -0.787541
vt 0.139978 -0.442588
vt 0.119448 -0.097444
vt 0.654162 -0.770567
vt 0.610395 -0.414127
vt 0.136922 -1.000739
vt 0.255061 -0.655291
vt 0.654162 -1.001539
vt 0.298547 -0.228841
vt 0.119448 -0.346802
vt 0.298547 -0.442588
vt 0.328849 -0.442588
vt 0.654162 -0.742261
vt 0.763511 -1.001539
vt 0.863019 -0.678837
vt 0.763514 -0.402126
vt 0.940941 -0.437619
vt 0.326959 -0.787546
vt 0.940941 -0.808072
vt 0.328849 -0.708100
vt 0.474829 -0.955556
vt 0.447780 -0.592518
vt -0.059059 -0.215016
vt -0.058672 -0.442588
vt 0.119448 -0.311900
vt 0.424878 -0.365887
vt -0.059059 -0.646139
vt -0.051178 -1.001539
vt 0.021362 -0.787541
vt 0.139978 -0.442588
vt 0.119448 -0.097444
vt 0.654162 -0.770567
vt 0.610395 -0.414127
vt 0.136922 -1.000739
vt 0.255061 -0.655291
vt 0.654162 -1.001539
vt 0.298547 -0.228841
vt 0.119448 -0.346802
vt 0.298547 -0.442588
vt 0.328849 -0.442588
vt 0.654162 -0.742261
vt 0.763511 -1.001539
vt 0.863019 -0.678837
vt 0.763514 -0.402126
vt 0.940941 -0.437619
vt 0.326959 -0.787546
vt 0.940941 -0.808072
vt 0.328849 -0.708100
vt 0.474829 -0.955556
vt 0.447780 -0.592518
vt -0.059059 -0.215016
vt -0.058672 -0.442588
vt 0.119448 -0.311900
vt 0.424878 -0.365887
vt -0.059059 -0.646139
vt -0.051178 -1.001539
vt 0.021362 -0.787541
vt 0.139978 -0.442588
vt 0.119448 -0.097444
vt 0.654162 -0.770567
vt 0.610395 -0.414127
vt 0.136922 -1.000739
vt 0.255061 -0.655291
vt 0.654162 -1.001539
vt 0.298547 -0.228841
vt 0.119448 -0.346802
vt 0.298547 -0.442588
vt 0.328849 -0.442588
vt 0.654162 -0.742261
vt 0.763511 -1.001539
vt 0.863019 -0.678837
vt 0.763514 -0.402126
vt 0.940941 -0.437619
vt 0.326959 -0.787546
vt 0.940941 -0.808072
vt 0.328849 -0.708100
vt 0.474829 -0.955556
vt 0.447780 -0.592518
vt -0.059059 -0.215016
vt -0.058672 -0.442588
vt 0.119448 -0.311900
vt 0.424878 -0.365887
vt -0.059059 -0.646139
vt -0.051178 -1.001539
vt 0.021362 -0.787541
vt 0.139978 -0.442588
vt 0.119448 -0.097444
vt 0.654162 -0.770567
vt 0.610395 -0.414127
vt 0.136922 -1.000739
vt 0.255061 -0.655291
vt 0.654162 -1.001539
vt 0.298547 -0.228841
vt 0.119448 -0.346802
vt 0.298547 -0.442588
vt 0.328849 -0.442588
vt 0.654162 -0.742261
vt 0.763511 -1.001539
vt 0.863019 -0.678837
vt 0.763514 -0.402126
vt 0.940941 -0.437619
vt 0.326959 -0.787546
vt 0.940941 -0.808072
vt 0.328849 -0.708100
vt 0.474829 -0.955556
vt 0.447780 -0.592518
vt -0.059059 -0.215016
vt -0.058672 -0.442588
vt 0.119448 -0.311900
vt 0.424878 -0.365887
vt -0.059059 -0.646139
vt -0.051178 -1.001539
vt 0.021362 -0.787541
vt 0.139978 -0.442588
vt 0.119448 -0.097444
vt 0.654162 -0.770567
vt 0.610395 -0.414127
vt 0.136922 -1.000739
vt 0.255061 -0.655291
vt 0.654162 -1.001539
vt 0.298547 -0.228841
vt 0.119448 -0.346802
vt 0.298547 -0.442588
vt 0.328849 -0.442588
vt 0.654162 -0.742261
vt 0.763511 -1.001539
vt 0.863019 -0.678837
vt 0.763514 -0.402126
vt 0.940941 -0.437619
vt 0.326959 -0.787546
vt 0.940941 -0.808072
vt 0.328849 -0.708100
vt 0.474829 -0.955556
vt 0.447780 -0.592518
vt -0.059059 -0.215016
vt -0.058672 -0.442588
vt 0.119448 -0.311900
vt 0.424878 -0.365887
vt -0.059059 -0.646139
vt -0.051178 -1.001539
vt 0.021362 -0.787541
vt 0.139978 -0.442588
vt 0.119448 -0.097444
vt 0.654162 -0.770567
vt 0.610395 -0.414127
vt 0.136922 -1.000739
vt 0.255061 -0.655291
vt 0.654162 -1.001539
vt 0.298547 -0.228841
vt 0.119448 -0.346802
vt 0.298547 -0.442588
vt 0.328849 -0.442588
vt 0.654162 -0.742261
vt 0.763511 -1.001539
vt 0.863019 -0.678837
vt 0.763514 -0.402126
vt 0.940941 -0.437619
vt 0.326959 -0.787546
vt 0.940941 -0.808072
vn 0.8377 -0.3639 -0.4073
vn 0.3706 -0.8843 -0.2840
vn 0.9361 -0.3484 0.0473
vn 0.3761 -0.7273 0.5741
vn -0.0190 -0.9341 0.3566
vn -0.2121 -0.6476 -0.7319
vn 0.6838 0.2125 -0.6980
vn 0.9155 0.4022 -0.0003
vn -0.1060 -0.3183 0.9421
vn -0.5889 -0.6623 0.4632
vn 0.0998 0.2993 -0.9489
vn 0.6191 0.6526 -0.4368
vn 0.2121 0.6476 0.7319
vn -0.6740 -0.2293 0.7022
vn -0.9155 -0.4022 0.0003
vn -0.4656 0.7288 -0.5021
vn -0.1005 0.9570 -0.2720
vn -0.4032 0.8813 0.2464
vn -0.8357 0.3892 0.3875
vn -0.9270 0.3719 -0.0486
vn 0.0880 0.4959 -0.8639
vn 0.3815 -0.1490 -0.9123
vn 0.4552 0.6413 -0.6176
vn 0.9583 0.0331 -0.2837
vn 0.8196 -0.4349 -0.3729
vn -0.2389 -0.5871 -0.7734
vn -0.5106 0.6132 -0.6027
vn -0.0259 0.9877 -0.1542
vn 0.8947 -0.1384 0.4246
vn 0.6129 -0.7802 0.1252
vn -0.8904 0.1229 -0.4383
vn -0.5798 0.8045 -0.1288
vn 0.2389 0.5871 0.7734
vn 0.5260 -0.6125 0.5901
vn 0.0259 -0.9877 0.1542
vn -0.9237 -0.1011 0.3695
vn -0.7947 0.3529 0.4939
vn -0.4165 0.1150 0.9018
vn -0.1177 -0.4840 0.8671
vn -0.4678 -0.6220 0.6279
vn -0.0318 -0.6580 -0.7523
vn 0.6339 -0.4396 -0.6364
vn -0.1259 -0.2520 -0.9595
vn 0.4260 0.3882 -0.8172
vn 0.8074 0.2820 -0.5182
vn 0.7271 -0.6805 0.0912
vn -0.4484 -0.8510 -0.2732
vn -0.7768 -0.2402 -0.5822
vn 0.2573 0.9079 -0.3308
vn 0.8208 0.5686 0.0542
vn -0.2371 -0.9140 0.3293
vn -0.8282 -0.5529 -0.0917
vn -0.7271 0.6805 -0.0912
vn 0.4584 0.8511 0.2561
vn 0.7768 0.2402 0.5822
vn -0.3918 -0.2932 0.8721
vn -0.7793 -0.1648 0.6046
vn -0.6133 0.4130 0.6732
vn 0.0100 0.6403 0.7680
vn 0.1010 0.2498 0.9630
vn -0.0470 -0.9455 -0.3223
vn -0.1074 -0.4910 -0.8645
vn -0.6476 -0.7509 -0.1295
vn -0.8929 -0.2340 -0.3847
vn -0.5415 0.1215 -0.8319
vn 0.7548 0.0392 -0.6548
vn 0.4133 -0.8976 0.1534
vn -0.4614 -0.7825 0.4180
vn -0.9462 0.3065 -0.1036
vn -0.3517 0.6970 -0.6249
vn 0.8593 -0.4997 0.1092
vn 0.3143 -0.7144 0.6252
vn -0.6849 0.0322 0.7279
vn -0.4249 0.8896 -0.1674
vn 0.4132 0.7954 -0.4434
vn 0.7091 0.1650 0.6855
vn 0.5175 0.0229 0.8554
vn 0.1526 0.5054 0.8493
vn 0.0701 0.9367 0.3429
vn 0.4251 0.8712 0.2456
vn 0.3184 0.0279 0.9475
vn 0.1388 -0.6334 0.7613
vn -0.1326 0.1378 0.9815
vn -0.6871 -0.3982 0.6077
vn -0.4871 -0.7885 0.3755
vn 0.6379 -0.7480 0.1835
vn 0.6951 0.4292 0.5767
vn 0.0240 0.7811 0.6240
vn -0.9735 -0.2245 -0.0427
vn -0.5316 -0.8051 -0.2631
vn 0.9778 0.2042 0.0466
vn 0.5030 0.8136 0.2915
vn -0.6379 0.7480 -0.1835
vn -0.7021 -0.4388 -0.5608
vn -0.0240 -0.7811 -0.6240
vn 0.6195 0.3657 -0.6946
vn 0.4113 0.7620 -0.5001
vn -0.1008 0.6113 -0.7849
vn -0.2953 -0.0070 -0.9554
vn 0.1369 -0.1131 -0.9841
vn -0.4857 -0.8514 -0.1983
vn -0.8348 -0.1431 -0.5316
vn 0.5724 -0.1290 -0.8097
vn -0.2495 -0.8198 0.5154
vn -0.8773 0.4634 -0.1248
vn 0.8811 -0.4613 0.1041
vn -0.5724 0.1290 0.8097
vn 0.2495 0.8198 -0.5154
vn 0.8052 0.2540 0.5358
vn 0.4891 0.8435 0.2221
usemtl leafs
s off
f 1/1/1 2/2/1 3/3/1
f 2/4/2 1/5/2 6/6/2
f 1/1/3 3/3/3 4/7/3
f 1/8/4 4/9/4 5/10/4
f 1/8/5 5/10/5 6/11/5
f 2/4/6 6/6/6 11/12/6
f 3/3/7 2/2/7 7/13/7
f 4/7/8 3/3/8 8/14/8
f 5/10/9 4/9/9 9/15/9
f 6/11/10 5/10/10 10/16/10
f 2/2/11 11/17/11 7/13/11
f 3/3/12 7/13/12 8/14/12
f 4/18/13 8/19/13 9/20/13
f 5/10/14 9/15/14 10/16/14
f 6/11/15 10/16/15 11/21/15
f 7/22/16 11/23/16 12/24/16
f 8/25/17 7/22/17 12/24/17
f 9/26/18 8/25/18 12/24/18
f 10/16/19 9/15/19 12/27/19
f 11/23/20 10/28/20 12/24/20
f 13/29/21 14/30/21 15/31/21
f 14/32/22 13/33/22 18/34/22
f 13/29/23 15/31/23 16/35/23
f 13/36/24 16/37/24 17/38/24
f 13/36/25 17/38/25 18/39/25
f 14/32/26 18/34/26 23/40/26
f 15/31/27 14/30/27 19/41/27
f 16/35/28 15/31/28 20/42/28
f 17/38/29 16/37/29 21/43/29
f 18/39/30 17/38/30 22/44/30
f 14/30/31 23/45/31 19/41/31
f 15/31/32 19/41/32 20/42/32
f 16/46/33 20/47/33 21/48/33
f 17/38/34 21/43/34 22/44/34
f 18/39/35 22/44/35 23/49/35
f 19/50/36 23/51/36 24/52/36
f 20/53/37 19/50/37 24/52/37
f 21/54/38 20/53/38 24/52/38
f 22/44/39 21/43/39 24/55/39
f 23/51/40 22/56/40 24/52/40
f 25/57/41 26/58/41 27/59/41
f 26/60/42 25/61/42 30/62/42
f 25/57/43 27/59/43 28/63/43
f 25/64/44 28/65/44 29/66/44
f 25/64/45 29/66/45 30/67/45
f 26/60/46 30/62/46 35/68/46
f 27/59/47 26/58/47 31/69/47
f 28/63/48 27/59/48 32/70/48
f 29/66/49 28/65/49 33/71/49
f 30/67/50 29/66/50 34/72/50
f 26/58/51 35/73/51 31/69/51
f 27/59/52 31/69/52 32/70/52
f 28/74/53 32/75/53 33/76/53
f 29/66/54 33/71/54 34/72/54
f 30/67/55 34/72/55 35/77/55
f 31/78/56 35/79/56 36/80/56
f 32/81/57 31/78/57 36/80/57
f 33/82/58 32/81/58 36/80/58
f 34/72/59 33/71/59 36/83/59
f 35/79/60 34/84/60 36/80/60
f 37/85/61 38/86/61 39/87/61
f 38/88/62 37/89/62 42/90/62
f 37/85/63 39/87/63 40/91/63
f 37/92/64 40/93/64 41/94/64
f 37/92/65 41/94/65 42/95/65
f 38/88/66 42/90/66 47/96/66
f 39/87/67 38/86/67 43/97/67
f 40/91/68 39/87/68 44/98/68
f 41/94/69 40/93/69 45/99/69
f 42/95/70 41/94/70 46/100/70
f 38/86/71 47/101/71 43/97/71
f 39/87/72 43/97/72 44/98/72
f 40/102/73 44/103/73 45/104/73
f 41/94/74 45/99/74 46/100/74
f 42/95/75 46/100/75 47/105/75
f 43/106/76 47/107/76 48/108/76
f 44/109/77 43/106/77 48/108/77
f 45/110/78 44/109/78 48/108/78
f 46/100/79 45/99/79 48/111/79
f 47/107/80 46/112/80 48/108/80
f 49/113/81 50/114/81 51/115/81
f 50/116/82 49/117/82 54/118/82
f 49/113/83 51/115/83 52/119/83
f 49/120/84 52/121/84 53/122/84
f 49/120/85 53/122/85 54/123/85
f 50/116/86 54/118/86 59/124/86
f 51/115/87 50/114/87 55/125/87
f 52/119/88 51/115/88 56/126/88
f 53/122/89 52/121/89 57/127/89
f 54/123/90 53/122/90 58/128/90
f 50/114/91 59/129/91 55/125/91
f 51/115/92 55/125/92 56/126/92
f 52/130/93 56/131/93 57/132/93
f 53/122/94 57/127/94 58/128/94
f 54/123/95 58/128/95 59/133/95
f 55/134/96 59/135/96 60/136/96
f 56/137/97 55/134/97 60/136/97
f 57/138/98 56/137/98 60/136/98
f 58/128/99 57/127/99 60/139/99
f 59/135/100 58/140/100 60/136/100
f 61/141/61 62/142/61 63/143/61
f 62/144/62 61/145/62 66/146/62
f 61/141/101 63/143/101 64/147/101
f 61/148/102 64/149/102 65/150/102
f 61/148/65 65/150/65 66/151/65
f 62/144/103 66/146/103 71/152/103
f 63/143/67 62/142/67 67/153/67
f 64/147/104 63/143/104 68/154/104
f 65/150/105 64/149/105 69/155/105
f 66/151/70 65/150/70 70/156/70
f 62/142/106 71/157/106 67/153/106
f 63/143/72 67/153/72 68/154/72
f 64/158/107 68/159/107 69/160/107
f 65/150/74 69/155/74 70/156/74
f 66/151/108 70/156/108 71/161/108
f 67/162/109 71/163/109 72/164/109
f 68/165/77 67/162/77 72/164/77
f 69/166/78 68/165/78 72/164/78
f 70/156/79 69/155/79 72/167/79
f 71/163/110 70/168/110 72/164/110
