# Blender v3.0.0 OBJ File: 'Chair.blend'
# www.blender.org
mtllib Chair.mtl
o Chair_Cube.001
v -3.170492 0.008302 0.169707
v -3.170492 2.060266 0.169707
v -3.170492 0.008302 -0.169707
v -3.170492 2.060266 -0.169707
v -2.831077 0.008302 0.169707
v -2.831077 2.060266 0.169707
v -2.831077 0.008302 -0.169707
v -2.831077 2.060266 -0.169707
v -3.170492 1.725155 0.169707
v -3.170492 1.725155 -0.169707
v -2.831077 1.725155 -0.169707
v -2.831077 1.725155 0.169707
v 0.007391 2.060266 -0.169707
v 0.007391 2.060266 0.169707
v 0.007391 1.725155 -0.169707
v 0.007391 1.725155 0.169707
v 3.153775 2.060266 0.169707
v 3.153775 0.008302 0.169707
v 3.153775 2.060266 -0.169708
v 3.153775 0.008302 -0.169708
v 2.814360 0.008302 -0.169708
v 2.814360 2.060266 -0.169708
v 2.814360 0.008302 0.169707
v 2.814360 2.060266 0.169707
v 3.153775 1.725155 -0.169708
v 3.153775 1.725155 0.169707
v 2.814360 1.725155 0.169707
v 2.814360 1.725155 -0.169708
v -3.170492 0.008302 -1.778218
v -3.170492 2.060266 -1.438803
v -3.170492 2.060266 -1.778218
v -3.170492 0.008302 -1.438803
v -2.831077 0.008302 -1.438803
v -2.831077 2.060266 -1.438803
v -2.831077 0.008302 -1.778218
v -2.831077 2.060266 -1.778218
v -3.170492 1.725155 -1.438803
v -3.170492 1.725155 -1.778218
v -2.831077 1.725155 -1.778218
v -2.831077 1.725155 -1.438803
v 0.007391 2.060266 -1.778218
v 0.007391 2.060266 -1.438803
v 0.007391 1.725155 -1.778218
v 0.007391 1.725155 -1.438803
v 3.153775 2.060266 -1.438803
v 3.153775 0.008302 -1.438803
v 3.153775 2.060266 -1.778218
v 3.153775 0.008302 -1.778218
v 2.814360 0.008302 -1.778218
v 2.814360 2.060266 -1.778218
v 2.814360 0.008302 -1.438803
v 2.814360 2.060266 -1.438803
v 3.153775 1.725155 -1.778218
v 3.153775 1.725155 -1.438803
v 2.814360 1.725155 -1.438803
v 2.814360 1.725155 -1.778218
v -3.170492 3.260957 0.585009
v -3.170492 3.260957 0.245594
v -2.831077 3.260957 0.245594
v -2.831077 3.260957 0.585009
v 3.153775 3.260957 0.245594
v 3.153775 3.260957 0.585009
v 2.814360 3.260957 0.585009
v 2.814360 3.260957 0.245594
v -3.170492 3.559264 0.585009
v -3.170492 3.559264 0.245594
v -2.831077 3.559264 0.245594
v -2.831077 3.559264 0.585009
v 3.153775 3.559264 0.245594
v 3.153775 3.559264 0.585009
v 2.814360 3.559264 0.585009
v 2.814360 3.559264 0.245594
v 1.920960 1.928229 0.084026
v 2.089010 1.928229 0.084025
v 1.920960 1.928229 -0.084026
v 2.089010 1.928229 -0.084026
v 2.089010 3.392995 0.331276
v 2.089010 3.392995 0.499327
v 1.920960 3.392995 0.499327
v 1.920960 3.392995 0.331276
v 0.920960 1.928229 0.084026
v 1.089010 1.928229 0.084025
v 0.920960 1.928229 -0.084026
v 1.089010 1.928229 -0.084026
v 1.089010 3.392995 0.331276
v 1.089010 3.392995 0.499327
v 0.920960 3.392995 0.499327
v 0.920960 3.392995 0.331276
v -0.079040 1.928229 0.084026
v 0.089010 1.928229 0.084025
v -0.079040 1.928229 -0.084026
v 0.089010 1.928229 -0.084026
v 0.089010 3.392995 0.331276
v 0.089010 3.392995 0.499327
v -0.079040 3.392995 0.499327
v -0.079040 3.392995 0.331276
v -1.079040 1.928229 0.084026
v -0.910989 1.928229 0.084025
v -1.079040 1.928229 -0.084026
v -0.910989 1.928229 -0.084026
v -0.910989 3.392995 0.331276
v -0.910989 3.392995 0.499327
v -1.079040 3.392995 0.499327
v -1.079040 3.392995 0.331276
v -2.079040 1.928229 0.084026
v -1.910989 1.928229 0.084025
v -2.079040 1.928229 -0.084026
v -1.910989 1.928229 -0.084026
v -1.910989 3.392995 0.331276
v -1.910989 3.392995 0.499327
v -2.079040 3.392995 0.499327
v -2.079040 3.392995 0.331276
v -2.831077 2.060266 -1.438803
v -2.831077 1.725155 -1.438803
v 0.007391 2.060266 -1.438803
v 0.007391 1.725155 -1.438803
v 2.814360 2.060266 -1.438803
v 2.814360 1.725155 -1.438803
v -2.831077 1.725155 -0.644496
vt 0.584172 0.000000
vt 0.625000 0.000000
vt 0.625000 0.250000
vt 0.584172 0.250000
vt 0.584172 0.750000
vt 0.584172 0.500000
vt 0.584172 0.500000
vt 0.584172 0.750000
vt 0.625000 0.750000
vt 0.625000 1.000000
vt 0.584172 1.000000
vt 0.125000 0.500000
vt 0.375000 0.500000
vt 0.375000 0.750000
vt 0.125000 0.750000
vt 0.625000 0.000000
vt 0.625000 0.250000
vt 0.375000 1.000000
vt 0.375000 0.250000
vt 0.375000 0.000000
vt 0.584172 0.250000
vt 0.625000 0.250000
vt 0.625000 0.500000
vt 0.584172 0.500000
vt 0.625000 0.750000
vt 0.625000 0.500000
vt 0.625000 0.500000
vt 0.125000 0.500000
vt 0.375000 0.500000
vt 0.375000 0.750000
vt 0.125000 0.750000
vt 0.584172 0.000000
vt 0.625000 0.000000
vt 0.584172 0.750000
vt 0.584172 0.500000
vt 0.584172 0.750000
vt 0.625000 1.000000
vt 0.625000 0.750000
vt 0.625000 0.750000
vt 0.625000 1.000000
vt 0.584172 1.000000
vt 0.375000 1.000000
vt 0.375000 0.250000
vt 0.375000 0.000000
vt 0.625000 0.500000
vt 0.625000 0.750000
vt 0.584172 0.000000
vt 0.625000 0.000000
vt 0.625000 0.250000
vt 0.584172 0.250000
vt 0.625000 0.500000
vt 0.584172 0.500000
vt 0.584172 0.750000
vt 0.584172 0.500000
vt 0.584172 0.750000
vt 0.584172 1.000000
vt 0.584172 0.750000
vt 0.584172 1.000000
vt 0.125000 0.500000
vt 0.375000 0.500000
vt 0.375000 0.750000
vt 0.125000 0.750000
vt 0.875000 0.500000
vt 0.875000 0.750000
vt 0.625000 0.750000
vt 0.375000 1.000000
vt 0.375000 0.250000
vt 0.375000 0.000000
vt 0.625000 0.750000
vt 0.584172 0.750000
vt 0.625000 0.750000
vt 0.625000 0.500000
vt 0.625000 0.750000
vt 0.584172 0.750000
vt 0.625000 0.750000
vt 0.625000 1.000000
vt 0.584172 1.000000
vt 0.125000 0.500000
vt 0.375000 0.500000
vt 0.375000 0.750000
vt 0.125000 0.750000
vt 0.584172 0.000000
vt 0.625000 0.000000
vt 0.625000 0.250000
vt 0.584172 0.250000
vt 0.584172 0.500000
vt 0.584172 0.500000
vt 0.584172 0.750000
vt 0.625000 0.500000
vt 0.875000 0.500000
vt 0.875000 0.750000
vt 0.375000 1.000000
vt 0.375000 0.250000
vt 0.375000 0.000000
vt 0.625000 0.750000
vt 0.625000 0.500000
vt 0.625000 0.500000
vt 0.625000 0.500000
vt 0.625000 0.500000
vt 0.625000 0.500000
vt 0.625000 0.750000
vt 0.625000 0.500000
vt 0.625000 0.250000
vt 0.625000 0.500000
vt 0.625000 0.750000
vt 0.625000 1.000000
vt 0.625000 0.000000
vt 0.625000 0.250000
vt 0.875000 0.500000
vt 0.875000 0.750000
vt 0.625000 0.750000
vt 0.625000 0.500000
vt 0.875000 0.500000
vt 0.875000 0.750000
vt 0.625000 0.750000
vt 0.625000 0.000000
vt 0.625000 0.250000
vt 0.625000 1.000000
vt 0.625000 0.750000
vt 0.625000 0.750000
vt 0.625000 1.000000
vt 0.625000 0.000000
vt 0.625000 1.000000
vt 0.625000 1.000000
vt 0.625000 0.500000
vt 0.625000 0.750000
vt 0.625000 0.250000
vt 0.625000 0.000000
vt 0.625000 0.000000
vt 0.625000 0.250000
vt 0.625000 0.500000
vt 0.625000 0.500000
vt 0.625000 1.000000
vt 0.625000 0.750000
vt 0.625000 0.750000
vt 0.625000 1.000000
vt 0.625000 0.250000
vt 0.625000 0.000000
vt 0.625000 0.000000
vt 0.625000 0.250000
vt 0.625000 0.500000
vt 0.625000 0.500000
vt 0.625000 1.000000
vt 0.625000 0.750000
vt 0.625000 0.750000
vt 0.625000 1.000000
vt 0.625000 0.250000
vt 0.625000 0.000000
vt 0.625000 0.000000
vt 0.625000 0.250000
vt 0.625000 0.500000
vt 0.625000 0.500000
vt 0.625000 1.000000
vt 0.625000 0.750000
vt 0.625000 0.750000
vt 0.625000 1.000000
vt 0.625000 0.250000
vt 0.625000 0.000000
vt 0.625000 0.000000
vt 0.625000 0.250000
vt 0.625000 0.500000
vt 0.625000 0.500000
vt 0.625000 1.000000
vt 0.625000 0.750000
vt 0.625000 0.750000
vt 0.625000 1.000000
vt 0.625000 0.250000
vt 0.625000 0.000000
vt 0.625000 0.000000
vt 0.625000 0.250000
vt 0.625000 0.500000
vt 0.625000 0.500000
vt 0.584172 0.750000
vt 0.584172 0.500000
vt 0.584172 0.500000
vt 0.584172 0.500000
vt 0.625000 0.750000
vt 0.584172 0.750000
vt 0.625000 1.000000
vt 0.584172 0.250000
vt 0.875000 0.750000
vt 0.584172 0.000000
vt 0.625000 0.000000
vt 0.625000 0.250000
vt 0.625000 0.500000
vt 0.875000 0.500000
vn -1.0000 0.0000 0.0000
vn 0.0000 -1.0000 0.0000
vn 0.0000 0.0000 1.0000
vn 1.0000 0.0000 0.0000
vn 0.0000 0.0000 -1.0000
vn 0.0000 1.0000 0.0000
vn -0.0000 0.3269 -0.9451
vn 0.0000 -0.3269 0.9451
vn -0.0000 0.2728 -0.9621
vn 0.0000 -0.2728 0.9621
vn 0.4957 -0.5020 0.7087
usemtl None
s off
f 9/1/1 2/2/1 4/3/1 10/4/1
f 12/5/2 11/6/2 15/7/2 16/8/2
f 12/5/3 6/9/3 2/10/3 9/11/3
f 3/12/2 7/13/2 5/14/2 1/15/2
f 4/3/1 2/2/1 57/16/1 58/17/1
f 5/14/3 12/5/3 9/11/3 1/18/3
f 7/13/4 11/6/4 12/5/4 5/14/4
f 3/19/5 10/4/5 11/6/5 7/13/5
f 1/20/1 9/1/1 10/4/1 3/19/1
f 26/21/3 17/22/3 24/23/3 27/24/3
f 6/9/3 12/5/3 16/8/3 14/25/3
f 8/26/6 6/9/6 14/25/6 13/27/6
f 18/28/2 23/29/2 21/30/2 20/31/2
f 25/32/4 19/33/4 17/22/4 26/21/4
f 28/34/2 27/24/2 16/35/2 15/36/2
f 19/37/7 22/38/7 64/39/7 61/40/7
f 21/30/5 28/34/5 25/41/5 20/42/5
f 23/29/1 27/24/1 28/34/1 21/30/1
f 18/43/3 26/21/3 27/24/3 23/29/3
f 20/44/4 25/32/4 26/21/4 18/43/4
f 27/24/3 24/23/3 14/45/3 16/35/3
f 24/23/6 22/38/6 13/46/6 14/45/6
f 37/47/1 30/48/1 31/49/1 38/50/1
f 38/50/5 31/49/5 36/51/5 39/52/5
f 40/53/2 39/52/2 43/54/2 44/55/2
f 37/56/2 40/53/2 119/57/2 10/58/2
f 29/59/2 35/60/2 33/61/2 32/62/2
f 36/51/6 31/63/6 30/64/6 34/65/6
f 33/61/3 40/53/3 37/56/3 32/66/3
f 35/60/4 39/52/4 40/53/4 33/61/4
f 29/67/5 38/50/5 39/52/5 35/60/5
f 32/68/1 37/47/1 38/50/1 29/67/1
f 40/53/4 34/65/4 8/69/4 119/57/4
f 34/65/3 40/53/3 114/70/3 113/71/3
f 39/52/5 36/51/5 41/72/5 43/54/5
f 36/51/6 34/65/6 42/73/6 41/72/6
f 56/74/5 50/75/5 47/76/5 53/77/5
f 46/78/2 51/79/2 49/80/2 48/81/2
f 53/82/4 47/83/4 45/84/4 54/85/4
f 56/74/2 55/86/2 44/87/2 43/88/2
f 52/89/6 45/90/6 47/91/6 50/75/6
f 49/80/5 56/74/5 53/77/5 48/92/5
f 51/79/1 55/86/1 56/74/1 49/80/1
f 46/93/3 54/85/3 55/86/3 51/79/3
f 48/94/4 53/82/4 54/85/4 46/93/4
f 50/75/5 56/74/5 43/88/5 41/95/5
f 52/89/3 42/96/3 115/97/3 117/98/3
f 52/89/6 50/75/6 41/95/6 42/96/6
f 64/39/2 63/99/2 60/100/2 59/101/2
f 59/102/5 58/17/5 66/103/5 67/104/5
f 2/10/8 6/9/8 60/105/8 57/106/8
f 17/22/4 19/33/4 61/107/4 62/108/4
f 8/26/7 4/3/7 58/17/7 59/102/7
f 22/38/1 24/23/1 63/99/1 64/39/1
f 24/23/8 17/22/8 62/108/8 63/99/8
f 6/9/4 8/26/4 59/102/4 60/105/4
f 67/104/6 66/109/6 65/110/6 68/111/6
f 71/112/6 70/113/6 69/114/6 72/115/6
f 62/108/4 61/107/4 69/116/4 70/117/4
f 76/118/9 75/119/9 80/120/9 77/121/9
f 58/17/1 57/16/1 65/122/1 66/103/1
f 61/40/5 64/39/5 72/115/5 69/123/5
f 63/99/3 62/108/3 70/117/3 71/112/3
f 57/106/3 60/105/3 68/111/3 65/124/3
f 63/99/3 71/112/3 68/125/3 60/100/3
f 71/112/6 72/115/6 67/126/6 68/125/6
f 72/115/5 64/39/5 59/101/5 67/126/5
f 74/127/4 76/128/4 77/129/4 78/130/4
f 75/119/1 73/131/1 79/132/1 80/120/1
f 73/131/10 74/127/10 78/130/10 79/132/10
f 84/133/9 83/134/9 88/135/9 85/136/9
f 82/137/4 84/138/4 85/139/4 86/140/4
f 83/134/1 81/141/1 87/142/1 88/135/1
f 81/141/10 82/137/10 86/140/10 87/142/10
f 92/143/9 91/144/9 96/145/9 93/146/9
f 90/147/4 92/148/4 93/149/4 94/150/4
f 91/144/1 89/151/1 95/152/1 96/145/1
f 89/151/10 90/147/10 94/150/10 95/152/10
f 100/153/9 99/154/9 104/155/9 101/156/9
f 98/157/4 100/158/4 101/159/4 102/160/4
f 99/154/1 97/161/1 103/162/1 104/155/1
f 97/161/10 98/157/10 102/160/10 103/162/10
f 108/163/9 107/164/9 112/165/9 109/166/9
f 106/167/4 108/168/4 109/169/4 110/170/4
f 107/164/1 105/171/1 111/172/1 112/165/1
f 105/171/10 106/167/10 110/170/10 111/172/10
f 113/71/1 114/70/1 11/173/1 8/69/1
f 116/174/2 118/175/2 28/176/2 15/7/2
f 42/73/3 34/65/3 113/71/3 115/177/3
f 55/86/3 52/89/3 117/98/3 118/175/3
f 44/87/3 55/86/3 118/175/3 116/174/3
f 40/53/3 44/55/3 116/178/3 114/70/3
f 119/57/11 8/69/11 4/179/11 10/58/11
f 55/86/2 54/85/2 25/180/2 28/176/2
f 114/70/2 116/178/2 15/36/2 11/173/2
f 115/177/6 113/71/6 8/69/6 13/46/6
f 34/65/6 30/64/6 4/181/6 8/69/6
f 30/48/1 37/47/1 10/182/1 4/183/1
f 54/85/4 45/84/4 19/184/4 25/180/4
f 45/90/6 52/89/6 22/185/6 19/186/6
f 117/98/6 115/97/6 13/27/6 22/185/6
