# Blender v3.0.0 OBJ File: ''
# www.blender.org
mtllib TrashCan.mtl
o TrashCan_Cylinder
v 0.000000 0.000000 -1.000000
v -0.000000 2.774540 -0.947703
v 0.406737 0.000000 -0.913545
v 0.385466 2.774540 -0.865770
v 0.743145 0.000000 -0.669131
v 0.704281 2.774540 -0.634137
v 0.951057 0.000000 -0.309017
v 0.901320 2.774540 -0.292856
v 0.994522 0.000000 0.104529
v 0.942512 2.774540 0.099062
v 0.866025 0.000000 0.500000
v 0.820735 2.774540 0.473852
v 0.587785 0.000000 0.809017
v 0.557046 2.774540 0.766708
v 0.207912 0.000000 0.978148
v 0.197039 2.774540 0.926994
v -0.207912 0.000000 0.978148
v -0.197039 2.774540 0.926994
v -0.587785 0.000000 0.809017
v -0.557046 2.774540 0.766708
v -0.866025 0.000000 0.500000
v -0.820735 2.774540 0.473852
v -0.994522 0.000000 0.104528
v -0.942512 2.774540 0.099062
v -0.951056 0.000000 -0.309017
v -0.901320 2.774540 -0.292857
v -0.743145 0.000000 -0.669131
v -0.704281 2.774540 -0.634138
v -0.406736 0.000000 -0.913546
v -0.385466 2.774540 -0.865770
v 0.510237 2.774540 -1.146011
v 0.000000 2.774540 -1.254465
v 0.932249 2.774540 -0.839401
v 1.193067 2.774540 -0.387651
v 1.247593 2.774540 0.131127
v 1.086399 2.774540 0.627233
v 0.737356 2.774540 1.014884
v 0.260818 2.774540 1.227052
v -0.260818 2.774540 1.227052
v -0.737356 2.774540 1.014884
v -1.086399 2.774540 0.627232
v -1.247593 2.774540 0.131127
v -1.193067 2.774540 -0.387651
v -0.932249 2.774540 -0.839401
v -0.510237 2.774540 -1.146011
v 0.351643 2.423439 -0.789803
v -0.000000 2.423439 -0.864547
v 0.642484 2.423439 -0.578495
v 0.822233 2.423439 -0.267160
v 0.859811 2.423439 0.090370
v 0.748720 2.423439 0.432274
v 0.508168 2.423439 0.699434
v 0.179749 2.423439 0.845655
v -0.179750 2.423439 0.845655
v -0.508168 2.423439 0.699434
v -0.748720 2.423439 0.432274
v -0.859811 2.423439 0.090370
v -0.822234 2.423439 -0.267160
v -0.642484 2.423439 -0.578495
v -0.351643 2.423439 -0.789803
v 0.000000 3.183170 1.237901
v -0.000000 2.766697 1.173162
v 0.503500 3.183170 1.130879
v 0.477168 2.766697 1.071737
v 0.919939 3.183170 0.828318
v 0.871830 2.766697 0.784999
v 1.177313 3.183170 0.382533
v 1.115744 2.766697 0.362527
v 1.231119 3.183170 -0.129395
v 1.166736 2.766697 -0.122629
v 1.072053 3.183170 -0.618950
v 1.015989 2.766697 -0.586582
v 0.727620 3.183170 -1.001482
v 0.689568 2.766697 -0.949109
v 0.257374 3.183170 -1.210849
v 0.243914 2.766697 -1.147527
v -0.257374 3.183170 -1.210849
v -0.243914 2.766697 -1.147527
v -0.727620 3.183170 -1.001482
v -0.689568 2.766697 -0.949109
v -1.072053 3.183170 -0.618950
v -1.015989 2.766697 -0.586581
v -1.231119 3.183170 -0.129395
v -1.166736 2.766697 -0.122629
v -1.177313 3.183170 0.382533
v -1.115744 2.766697 0.362527
v -0.919939 3.183170 0.828318
v -0.871830 2.766697 0.784999
v -0.503499 3.183170 1.130879
v -0.477168 2.766697 1.071738
v 0.631622 2.766697 1.418647
v 0.000000 2.766697 1.552903
v 1.154032 2.766697 1.039095
v 1.476898 2.766697 0.479873
v 1.544396 2.766697 -0.162323
v 1.344853 2.766697 -0.776452
v 0.912773 2.766698 -1.256325
v 0.322867 2.766698 -1.518969
v -0.322867 2.766698 -1.518969
v -0.912774 2.766698 -1.256325
v -1.344854 2.766697 -0.776452
v -1.544396 2.766697 -0.162322
v -1.476898 2.766697 0.479874
v -1.154032 2.766697 1.039095
v -0.631622 2.766697 1.418648
v 0.435299 2.819400 0.977698
v -0.000000 2.819400 1.070224
v 0.795331 2.819400 0.716119
v 1.017843 2.819400 0.330717
v 1.064361 2.819400 -0.111869
v 0.926841 2.819400 -0.535112
v 0.629062 2.819400 -0.865830
v 0.222512 2.819400 -1.046837
v -0.222512 2.819400 -1.046837
v -0.629062 2.819400 -0.865829
v -0.926841 2.819400 -0.535112
v -1.064361 2.819400 -0.111869
v -1.017843 2.819400 0.330717
v -0.795331 2.819400 0.716120
v -0.435299 2.819400 0.977698
v -0.471079 3.273151 0.073810
v -0.471079 3.420771 0.073810
v -0.471079 3.273151 -0.073810
v -0.471079 3.420771 -0.073810
v 0.471079 3.273151 0.073810
v 0.471079 3.420771 0.073810
v 0.471079 3.273151 -0.073810
v 0.471079 3.420771 -0.073810
v 0.000000 3.273151 -0.073810
v 0.000000 3.420771 -0.073810
v 0.000000 3.273151 0.073810
v 0.000000 3.420771 0.073810
v -0.235540 3.273151 -0.073810
v -0.235540 3.420771 0.073810
v -0.235540 3.420771 -0.073810
v -0.235540 3.273151 0.073810
v 0.235540 3.420771 -0.073810
v 0.235540 3.273151 0.073810
v 0.235540 3.273151 -0.073810
v 0.235540 3.420771 0.073810
v -0.471079 3.110922 -0.073810
v -0.471079 3.110922 0.073810
v -0.235540 3.110922 -0.073810
v 0.471079 3.110922 0.073810
v 0.471079 3.110922 -0.073810
v 0.235540 3.110922 0.073810
v -0.235540 3.110922 0.073810
v 0.235540 3.110922 -0.073810
v -0.471079 3.300997 0.000000
v -0.471079 3.448617 0.000000
v 0.471079 3.300997 0.000000
v 0.471079 3.448617 0.000000
v 0.000000 3.448617 0.000000
v 0.000000 3.300997 0.000000
v -0.235540 3.300997 0.000000
v -0.235540 3.448617 0.000000
v 0.235540 3.448617 0.000000
v 0.235540 3.300997 0.000000
v -0.471079 3.138768 0.000000
v 0.471079 3.138768 0.000000
v -0.235540 3.138768 0.000000
v 0.235540 3.138768 0.000000
vt 1.000000 0.500000
vt 1.000000 1.000000
vt 0.933333 1.000000
vt 0.933333 0.500000
vt 0.866667 1.000000
vt 0.866667 0.500000
vt 0.800000 1.000000
vt 0.800000 0.500000
vt 0.733333 1.000000
vt 0.733333 0.500000
vt 0.666667 1.000000
vt 0.666667 0.500000
vt 0.600000 1.000000
vt 0.600000 0.500000
vt 0.533333 1.000000
vt 0.533333 0.500000
vt 0.466667 1.000000
vt 0.466667 0.500000
vt 0.400000 1.000000
vt 0.400000 0.500000
vt 0.333333 1.000000
vt 0.333333 0.500000
vt 0.266667 1.000000
vt 0.266667 0.500000
vt 0.200000 1.000000
vt 0.200000 0.500000
vt 0.133333 1.000000
vt 0.133333 0.500000
vt 0.356572 0.103316
vt 0.407020 0.159344
vt 0.407020 0.159344
vt 0.356572 0.103316
vt 0.066667 1.000000
vt 0.066667 0.500000
vt 0.000000 1.000000
vt 0.000000 0.500000
vt 0.750000 0.490000
vt 0.847617 0.469251
vt 0.928355 0.410591
vt 0.978254 0.324164
vt 0.988685 0.224913
vt 0.957846 0.130000
vt 0.891068 0.055836
vt 0.799899 0.015245
vt 0.700101 0.015245
vt 0.608932 0.055836
vt 0.542154 0.130000
vt 0.511315 0.224913
vt 0.521746 0.324164
vt 0.571645 0.410591
vt 0.652383 0.469251
vt 0.250000 0.431311
vt 0.323746 0.415636
vt 0.347617 0.469251
vt 0.250000 0.490000
vt 0.384741 0.371321
vt 0.428355 0.410591
vt 0.422437 0.306028
vt 0.478254 0.324164
vt 0.430318 0.231048
vt 0.488685 0.224913
vt 0.457846 0.130000
vt 0.391068 0.055836
vt 0.287697 0.072651
vt 0.299899 0.015245
vt 0.212303 0.072651
vt 0.200101 0.015245
vt 0.143428 0.103316
vt 0.108932 0.055836
vt 0.092980 0.159344
vt 0.042154 0.130000
vt 0.069682 0.231048
vt 0.011315 0.224913
vt 0.077563 0.306028
vt 0.021746 0.324164
vt 0.115259 0.371321
vt 0.071645 0.410591
vt 0.176254 0.415636
vt 0.152383 0.469251
vt 0.323746 0.415636
vt 0.250000 0.431311
vt 0.176254 0.415636
vt 0.115259 0.371321
vt 0.077563 0.306028
vt 0.069682 0.231048
vt 0.092980 0.159344
vt 0.143428 0.103316
vt 0.212303 0.072651
vt 0.287697 0.072651
vt 0.430318 0.231048
vt 0.422437 0.306028
vt 0.384741 0.371321
vt 1.000000 0.500000
vt 1.000000 1.000000
vt 0.933333 1.000000
vt 0.933333 0.500000
vt 0.866667 1.000000
vt 0.866667 0.500000
vt 0.800000 1.000000
vt 0.800000 0.500000
vt 0.733333 1.000000
vt 0.733333 0.500000
vt 0.666667 1.000000
vt 0.666667 0.500000
vt 0.600000 1.000000
vt 0.600000 0.500000
vt 0.533333 1.000000
vt 0.533333 0.500000
vt 0.466667 1.000000
vt 0.466667 0.500000
vt 0.400000 1.000000
vt 0.400000 0.500000
vt 0.333333 1.000000
vt 0.333333 0.500000
vt 0.266667 1.000000
vt 0.266667 0.500000
vt 0.200000 1.000000
vt 0.200000 0.500000
vt 0.133333 1.000000
vt 0.133333 0.500000
vt 0.356572 0.103316
vt 0.407020 0.159344
vt 0.407020 0.159344
vt 0.356572 0.103316
vt 0.066667 1.000000
vt 0.066667 0.500000
vt 0.000000 1.000000
vt 0.000000 0.500000
vt 0.750000 0.490000
vt 0.847617 0.469251
vt 0.928355 0.410591
vt 0.978254 0.324164
vt 0.988685 0.224913
vt 0.957846 0.130000
vt 0.891068 0.055836
vt 0.799899 0.015245
vt 0.700101 0.015245
vt 0.608932 0.055836
vt 0.542154 0.130000
vt 0.511315 0.224913
vt 0.521746 0.324164
vt 0.571645 0.410591
vt 0.652383 0.469251
vt 0.250000 0.431311
vt 0.323746 0.415636
vt 0.347617 0.469251
vt 0.250000 0.490000
vt 0.384741 0.371321
vt 0.428355 0.410591
vt 0.422437 0.306028
vt 0.478254 0.324164
vt 0.430318 0.231048
vt 0.488685 0.224913
vt 0.457846 0.130000
vt 0.391068 0.055836
vt 0.287697 0.072651
vt 0.299899 0.015245
vt 0.212303 0.072651
vt 0.200101 0.015245
vt 0.143428 0.103316
vt 0.108932 0.055836
vt 0.092980 0.159344
vt 0.042154 0.130000
vt 0.069682 0.231048
vt 0.011315 0.224913
vt 0.077563 0.306028
vt 0.021746 0.324164
vt 0.115259 0.371321
vt 0.071645 0.410591
vt 0.176254 0.415636
vt 0.152383 0.469251
vt 0.323746 0.415636
vt 0.250000 0.431311
vt 0.176254 0.415636
vt 0.115259 0.371321
vt 0.077563 0.306028
vt 0.069682 0.231048
vt 0.092980 0.159344
vt 0.143428 0.103316
vt 0.212303 0.072651
vt 0.287697 0.072651
vt 0.430318 0.231048
vt 0.422437 0.306028
vt 0.384741 0.371321
vt 0.375000 0.125000
vt 0.625000 0.125000
vt 0.625000 0.250000
vt 0.375000 0.250000
vt 0.375000 0.437500
vt 0.625000 0.437500
vt 0.625000 0.500000
vt 0.375000 0.500000
vt 0.375000 0.625000
vt 0.625000 0.625000
vt 0.625000 0.750000
vt 0.375000 0.750000
vt 0.375000 0.937500
vt 0.625000 0.937500
vt 0.625000 1.000000
vt 0.375000 1.000000
vt 0.312500 0.625000
vt 0.312500 0.500000
vt 0.312500 0.500000
vt 0.312500 0.625000
vt 0.812500 0.625000
vt 0.875000 0.625000
vt 0.875000 0.750000
vt 0.812500 0.750000
vt 0.687500 0.625000
vt 0.750000 0.625000
vt 0.750000 0.750000
vt 0.687500 0.750000
vt 0.187500 0.625000
vt 0.250000 0.625000
vt 0.250000 0.750000
vt 0.187500 0.750000
vt 0.375000 0.812500
vt 0.625000 0.812500
vt 0.625000 0.875000
vt 0.375000 0.875000
vt 0.375000 0.312500
vt 0.625000 0.312500
vt 0.625000 0.375000
vt 0.375000 0.375000
vt 0.187500 0.750000
vt 0.187500 0.625000
vt 0.312500 0.750000
vt 0.375000 0.625000
vt 0.375000 0.750000
vt 0.312500 0.750000
vt 0.125000 0.625000
vt 0.125000 0.750000
vt 0.375000 1.000000
vt 0.375000 0.937500
vt 0.375000 0.812500
vt 0.375000 0.500000
vt 0.375000 0.437500
vt 0.375000 0.312500
vt 0.375000 0.250000
vt 0.375000 0.125000
vt 0.375000 0.000000
vt 0.375000 0.000000
vt 0.125000 0.500000
vt 0.187500 0.500000
vt 0.250000 0.500000
vt 0.687500 0.500000
vt 0.750000 0.500000
vt 0.812500 0.500000
vt 0.187500 0.500000
vt 0.875000 0.500000
vt 0.625000 0.000000
vn 0.2071 -0.0894 -0.9742
vn 0.5854 -0.0894 -0.8058
vn 0.8626 -0.0894 -0.4980
vn 0.9905 -0.0894 -0.1041
vn 0.9473 -0.0894 0.3078
vn 0.7402 -0.0894 0.6665
vn 0.4051 -0.0894 0.9099
vn 0.0000 -0.0894 0.9960
vn -0.4051 -0.0894 0.9099
vn -0.7402 -0.0894 0.6665
vn -0.9473 -0.0894 0.3078
vn -0.9905 -0.0894 -0.1041
vn -0.8626 -0.0894 -0.4980
vn -0.7240 0.2257 -0.6519
vn -0.5854 -0.0894 -0.8058
vn -0.2071 -0.0894 -0.9742
vn 0.0000 -1.0000 0.0000
vn 0.0000 1.0000 -0.0000
vn 0.5726 0.2257 0.7881
vn -0.3962 0.2257 -0.8900
vn 0.2025 0.2257 0.9529
vn 0.0000 0.2257 -0.9742
vn -0.2025 0.2257 0.9529
vn 0.3962 0.2257 -0.8900
vn -0.5726 0.2257 0.7881
vn 0.7240 0.2257 -0.6519
vn -0.8437 0.2257 0.4871
vn 0.9265 0.2257 -0.3010
vn -0.9689 0.2257 0.1018
vn 0.9689 0.2257 0.1018
vn -0.9265 0.2257 -0.3010
vn 0.8437 0.2257 0.4871
vn 0.1671 0.5948 0.7863
vn 0.4725 0.5948 0.6504
vn 0.6962 0.5948 0.4020
vn 0.7995 0.5948 0.0840
vn 0.7646 0.5948 -0.2484
vn 0.5974 0.5948 -0.5379
vn 0.3270 0.5948 -0.7344
vn -0.0000 0.5948 -0.8039
vn -0.3270 0.5948 -0.7344
vn -0.5974 0.5948 -0.5379
vn -0.7646 0.5948 -0.2484
vn -0.7995 0.5948 0.0840
vn -0.6962 0.5948 0.4020
vn -0.3446 -0.8860 0.3103
vn -0.4725 0.5948 0.6504
vn -0.1671 0.5948 0.7863
vn 0.2726 -0.8860 -0.3752
vn -0.1886 -0.8860 0.4236
vn 0.0964 -0.8860 -0.4536
vn -0.0000 -0.8860 0.4637
vn -0.0964 -0.8860 -0.4536
vn 0.1886 -0.8860 0.4236
vn -0.2726 -0.8860 -0.3752
vn 0.3446 -0.8860 0.3103
vn -0.4016 -0.8860 -0.2319
vn 0.4410 -0.8860 0.1433
vn -0.4612 -0.8860 -0.0485
vn 0.4612 -0.8860 -0.0485
vn -0.4410 -0.8860 0.1433
vn 0.4016 -0.8860 -0.2319
vn -1.0000 0.0000 0.0000
vn 0.0000 0.0000 -1.0000
vn 1.0000 0.0000 0.0000
vn 0.0000 0.0000 1.0000
vn 0.0000 0.9356 0.3530
vn 0.0000 -0.9356 -0.3530
vn 0.0000 -0.9356 0.3530
vn 0.0000 0.9356 -0.3530
usemtl None
s off
f 1/1/1 32/2/1 31/3/1 3/4/1
f 3/4/2 31/3/2 33/5/2 5/6/2
f 5/6/3 33/5/3 34/7/3 7/8/3
f 7/8/4 34/7/4 35/9/4 9/10/4
f 9/10/5 35/9/5 36/11/5 11/12/5
f 11/12/6 36/11/6 37/13/6 13/14/6
f 13/14/7 37/13/7 38/15/7 15/16/7
f 15/16/8 38/15/8 39/17/8 17/18/8
f 17/18/9 39/17/9 40/19/9 19/20/9
f 19/20/10 40/19/10 41/21/10 21/22/10
f 21/22/11 41/21/11 42/23/11 23/24/11
f 23/24/12 42/23/12 43/25/12 25/26/12
f 25/26/13 43/25/13 44/27/13 27/28/13
f 14/29/14 12/30/14 51/31/14 52/32/14
f 27/28/15 44/27/15 45/33/15 29/34/15
f 29/34/16 45/33/16 32/35/16 1/36/16
f 1/37/17 3/38/17 5/39/17 7/40/17 9/41/17 11/42/17 13/43/17 15/44/17 17/45/17 19/46/17 21/47/17 23/48/17 25/49/17 27/50/17 29/51/17
f 2/52/18 4/53/18 31/54/18 32/55/18
f 4/53/18 6/56/18 33/57/18 31/54/18
f 6/56/18 8/58/18 34/59/18 33/57/18
f 8/58/18 10/60/18 35/61/18 34/59/18
f 10/60/18 12/30/18 36/62/18 35/61/18
f 12/30/18 14/29/18 37/63/18 36/62/18
f 14/29/18 16/64/18 38/65/18 37/63/18
f 16/64/18 18/66/18 39/67/18 38/65/18
f 18/66/18 20/68/18 40/69/18 39/67/18
f 20/68/18 22/70/18 41/71/18 40/69/18
f 22/70/18 24/72/18 42/73/18 41/71/18
f 24/72/18 26/74/18 43/75/18 42/73/18
f 26/74/18 28/76/18 44/77/18 43/75/18
f 28/76/18 30/78/18 45/79/18 44/77/18
f 30/78/18 2/52/18 32/55/18 45/79/18
f 46/80/18 47/81/18 60/82/18 59/83/18 58/84/18 57/85/18 56/86/18 55/87/18 54/88/18 53/89/18 52/32/18 51/31/18 50/90/18 49/91/18 48/92/18
f 30/78/19 28/76/19 59/83/19 60/82/19
f 16/64/20 14/29/20 52/32/20 53/89/20
f 2/52/21 30/78/21 60/82/21 47/81/21
f 18/66/22 16/64/22 53/89/22 54/88/22
f 4/53/23 2/52/23 47/81/23 46/80/23
f 20/68/24 18/66/24 54/88/24 55/87/24
f 6/56/25 4/53/25 46/80/25 48/92/25
f 22/70/26 20/68/26 55/87/26 56/86/26
f 8/58/27 6/56/27 48/92/27 49/91/27
f 24/72/28 22/70/28 56/86/28 57/85/28
f 10/60/29 8/58/29 49/91/29 50/90/29
f 26/74/30 24/72/30 57/85/30 58/84/30
f 12/30/31 10/60/31 50/90/31 51/31/31
f 28/76/32 26/74/32 58/84/32 59/83/32
f 61/93/33 92/94/33 91/95/33 63/96/33
f 63/96/34 91/95/34 93/97/34 65/98/34
f 65/98/35 93/97/35 94/99/35 67/100/35
f 67/100/36 94/99/36 95/101/36 69/102/36
f 69/102/37 95/101/37 96/103/37 71/104/37
f 71/104/38 96/103/38 97/105/38 73/106/38
f 73/106/39 97/105/39 98/107/39 75/108/39
f 75/108/40 98/107/40 99/109/40 77/110/40
f 77/110/41 99/109/41 100/111/41 79/112/41
f 79/112/42 100/111/42 101/113/42 81/114/42
f 81/114/43 101/113/43 102/115/43 83/116/43
f 83/116/44 102/115/44 103/117/44 85/118/44
f 85/118/45 103/117/45 104/119/45 87/120/45
f 74/121/46 72/122/46 111/123/46 112/124/46
f 87/120/47 104/119/47 105/125/47 89/126/47
f 89/126/48 105/125/48 92/127/48 61/128/48
f 61/129/18 63/130/18 65/131/18 67/132/18 69/133/18 71/134/18 73/135/18 75/136/18 77/137/18 79/138/18 81/139/18 83/140/18 85/141/18 87/142/18 89/143/18
f 62/144/17 64/145/17 91/146/17 92/147/17
f 64/145/17 66/148/17 93/149/17 91/146/17
f 66/148/17 68/150/17 94/151/17 93/149/17
f 68/150/17 70/152/17 95/153/17 94/151/17
f 70/152/17 72/122/17 96/154/17 95/153/17
f 72/122/17 74/121/17 97/155/17 96/154/17
f 74/121/17 76/156/17 98/157/17 97/155/17
f 76/156/17 78/158/17 99/159/17 98/157/17
f 78/158/17 80/160/17 100/161/17 99/159/17
f 80/160/17 82/162/17 101/163/17 100/161/17
f 82/162/17 84/164/17 102/165/17 101/163/17
f 84/164/17 86/166/17 103/167/17 102/165/17
f 86/166/17 88/168/17 104/169/17 103/167/17
f 88/168/17 90/170/17 105/171/17 104/169/17
f 90/170/17 62/144/17 92/147/17 105/171/17
f 106/172/17 107/173/17 120/174/17 119/175/17 118/176/17 117/177/17 116/178/17 115/179/17 114/180/17 113/181/17 112/124/17 111/123/17 110/182/17 109/183/17 108/184/17
f 90/170/49 88/168/49 119/175/49 120/174/49
f 76/156/50 74/121/50 112/124/50 113/181/50
f 62/144/51 90/170/51 120/174/51 107/173/51
f 78/158/52 76/156/52 113/181/52 114/180/52
f 64/145/53 62/144/53 107/173/53 106/172/53
f 80/160/54 78/158/54 114/180/54 115/179/54
f 66/148/55 64/145/55 106/172/55 108/184/55
f 82/162/56 80/160/56 115/179/56 116/178/56
f 68/150/57 66/148/57 108/184/57 109/183/57
f 84/164/58 82/162/58 116/178/58 117/177/58
f 70/152/59 68/150/59 109/183/59 110/182/59
f 86/166/60 84/164/60 117/177/60 118/176/60
f 72/122/61 70/152/61 110/182/61 111/123/61
f 88/168/62 86/166/62 118/176/62 119/175/62
f 149/185/63 150/186/63 124/187/63 123/188/63
f 139/189/64 137/190/64 128/191/64 127/192/64
f 151/193/65 152/194/65 126/195/65 125/196/65
f 136/197/66 134/198/66 122/199/66 121/200/66
f 158/201/63 139/202/63 148/203/63 162/204/63
f 156/205/67 150/206/67 122/207/67 134/208/67
f 157/209/67 153/210/67 132/211/67 140/212/67
f 155/213/68 154/214/68 131/215/68 136/216/68
f 138/217/66 140/218/66 132/219/66 131/220/66
f 133/221/64 135/222/64 130/223/64 129/224/64
f 123/188/64 124/187/64 135/222/64 133/221/64
f 155/213/65 136/216/65 147/225/65 161/226/65
f 153/210/67 156/205/67 134/208/67 132/211/67
f 131/220/66 132/219/66 134/198/66 136/197/66
f 125/196/66 126/195/66 140/218/66 138/217/66
f 152/194/67 157/209/67 140/212/67 126/195/67
f 154/214/68 158/201/68 138/227/68 131/215/68
f 129/224/64 130/223/64 137/190/64 139/189/64
f 162/204/68 160/228/68 144/229/68 146/230/68
f 159/231/68 161/226/68 147/225/68 142/232/68
f 136/197/66 121/200/66 142/233/66 147/234/66
f 125/196/66 138/217/66 146/235/66 144/229/66
f 139/189/64 127/192/64 145/236/64 148/237/64
f 123/188/64 133/221/64 143/238/64 141/239/64
f 149/185/63 123/188/63 141/239/63 159/240/63
f 151/193/65 125/196/65 144/229/65 160/228/65
f 127/192/65 151/193/65 160/228/65 145/236/65
f 121/241/63 149/185/63 159/240/63 142/242/63
f 141/243/69 143/244/69 161/226/69 159/231/69
f 148/203/69 145/236/69 160/228/69 162/204/69
f 129/245/69 139/202/69 158/201/69 154/214/69
f 128/191/70 137/246/70 157/209/70 152/194/70
f 130/247/70 135/248/70 156/205/70 153/210/70
f 133/249/65 155/213/65 161/226/65 143/244/65
f 133/249/69 129/245/69 154/214/69 155/213/69
f 137/246/70 130/247/70 153/210/70 157/209/70
f 135/248/70 124/250/70 150/206/70 156/205/70
f 138/227/63 158/201/63 162/204/63 146/230/63
f 127/192/65 128/191/65 152/194/65 151/193/65
f 121/241/63 122/251/63 150/186/63 149/185/63
